<?xml version="1.0" encoding="UTF-8"?>
<svg id="Layer_1" data-name="Layer 1" xmlns="http://www.w3.org/2000/svg" viewBox="0 0 1208 1220">
  <defs>
    <style>
      .cls-1 {
        fill: #1488db;
      }

      .cls-1, .cls-2 {
        stroke-width: 0px;
      }

      .cls-2 {
        fill: #022a93;
      }
    </style>
  </defs>
  <g>
    <path class="cls-2" d="m604.75,0h.09l.04.58c.09,108.79.01,217.59.04,326.38-.16,7.4.41,14.82-.4,22.2-10.54,5.37-20.55,11.74-30.88,17.51-69.09,39.89-138.19,79.79-207.29,119.68-21.04,12.02-41.88,24.43-63.05,36.22l-1.11.5c.12-115.37.03-230.74.04-346.12-.36-3.1,3.4-3.9,5.37-5.36C406.68,114.44,505.76,57.28,604.75,0Z"/>
    <path class="cls-2" d="m905.61,524.04c.69-.21,1.4-.4,2.13-.59,87.53,51.44,175.25,102.57,262.85,153.89,11.92,7.16,24.19,13.78,35.89,21.26.83,2.99.25,6.26.4,9.37.11,112.9.08,225.81.15,338.71l-.33.14c-70.23-40.94-140.48-81.84-210.72-122.76-30.1-17.67-60.44-34.95-90.4-52.86.44-51.39.07-102.8.19-154.2-.11-64.32.22-128.65-.16-192.96Z"/>
    <path class="cls-2" d="m399.33,525.48c30.58.04,61.17-.03,91.75.04,11.3.19,22.69.37,33.84,2.36,14.2,2.59,27.28,10.92,35.28,22.98,8.98,12.58,11.13,29.38,6.61,44.05-4.25,13.79-14.64,25.37-27.76,31.34,15.17,4.23,29.16,14.34,35.71,28.97,10.94,24.29,2.67,55.12-17.72,71.87-9.8,8.05-22.47,11.77-34.96,12.69-10.32.68-20.67.84-31.02,1.01-30.59.37-61.19.18-91.78.16.09-71.82,0-143.65.05-215.47Zm43.65,35.78c-.22,16.57-.04,33.14-.09,49.71,18.05-.08,36.11.23,54.17-.35,6.97-.19,14.27-1.33,20.11-5.42,12.91-8.57,12.89-30.79-.17-39.2-7.43-4.68-16.56-4.27-24.99-4.52-16.34-.3-32.69-.11-49.03-.22Zm-.09,85.52c.08,19.28-.18,38.57.13,57.84,17.24-.15,34.48.09,51.72-.14,6.79-.26,13.7-.1,20.35-1.69,8.62-2.04,16.27-8.63,18.56-17.33,2.01-7.83,1.67-16.62-2.33-23.78-3.92-7.07-11.45-11.56-19.27-12.91-8.93-1.54-18.01-1.73-27.04-1.94-14.04-.11-28.08-.03-42.12-.05Z"/>
    <path class="cls-2" d="m629.45,525.49c14.49-.04,28.97.07,43.46-.06.27,31.82.03,63.65.12,95.48,29.28-31.77,58.52-63.57,87.73-95.39,19.44-.08,38.87,0,58.31-.04-26.86,28.09-54,55.93-81.03,83.87,28.39,43.93,56.93,87.75,85.37,131.64-18.74,0-37.48.03-56.22-.02-19.44-33.35-39-66.64-58.45-99.99-.46-1.44-1.84-.25-2.34.46-11.08,11.51-22.27,22.91-33.38,34.4v65.15c-14.54-.05-29.09.13-43.63-.09.14-71.8.02-143.6.06-215.41Z"/>
    <path class="cls-2" d="m212.93,921.9c30.11-17.06,60.01-34.51,90.26-51.31,41.67,24.48,83.7,48.38,125.52,72.64,42.08,24.3,84.17,48.6,126.25,72.89,16.8,9.49,33.25,19.62,50.28,28.69l-1.15.82c-21.89,13.04-44.11,25.53-66.13,38.35-71.21,41.12-142.41,82.23-213.62,123.34-6.73,4.15-13.98,7.52-20.36,12.19l-.2.49h-1.39c-.92-.92-1.81-1.86-2.93-2.48-99.53-58.07-199-116.23-298.52-174.31,10.52-6.75,21.66-12.5,32.43-18.84,59.85-34.16,119.71-68.3,179.56-102.47Z"/>
  </g>
  <g>
    <path class="cls-1" d="m604.88.58c100.43,58.14,201.03,115.97,301.43,174.15-.01,115.66-.1,231.31.05,346.96-.39.6-.77,1.21-1.13,1.82-4.43-3.34-9.46-5.72-14.18-8.58-84.53-48.81-169.07-97.61-253.6-146.42-10.93-6.52-22.26-12.42-32.93-19.35.81-7.38.24-14.8.4-22.2-.03-108.79.05-217.59-.04-326.38Z"/>
    <path class="cls-1" d="m267.65,542.76c11.54-6.5,22.81-13.53,34.54-19.69l1.11-.5c-.11,116.01.11,232.01-.11,348.02-30.25,16.8-60.15,34.25-90.26,51.31-59.85,34.17-119.71,68.31-179.56,102.47-10.77,6.34-21.91,12.09-32.43,18.84.12-115.47.04-230.94.03-346.41,88.83-51.46,177.8-102.68,266.68-154.04Z"/>
    <path class="cls-1" d="m643.44,1022.5c87.39-50.41,174.72-100.94,262.14-151.3,29.96,17.91,60.3,35.19,90.4,52.86,70.24,40.92,140.49,81.82,210.72,122.76-32.11,18.1-64.04,36.55-96.09,54.78-67.94,38.84-135.96,77.57-203.87,116.48-100.88-57.48-201.67-115.13-302.65-172.45l1.15-.82c12.5-7.81,25.5-14.81,38.2-22.31Z"/>
  </g>
  <g>
    <path class="cls-1" d="m415.13,835.3h-16.92v-59.82h16.92v59.82Zm24.18-23.33h-25.46v-14.01h25.46v14.01Zm-1.2-36.49h16.92v59.82h-16.92v-59.82Z"/>
    <path class="cls-1" d="m492.89,836.5c-4.73,0-9.13-.77-13.2-2.31-4.07-1.54-7.59-3.72-10.55-6.54-2.96-2.82-5.28-6.12-6.96-9.91-1.68-3.79-2.52-7.93-2.52-12.43s.84-8.54,2.52-12.3c1.68-3.76,4-7.05,6.96-9.87,2.96-2.82,6.46-5,10.51-6.54,4.04-1.54,8.46-2.31,13.25-2.31s9.2.77,13.25,2.31c4.04,1.54,7.55,3.7,10.51,6.49,2.96,2.79,5.28,6.07,6.96,9.83,1.68,3.76,2.52,7.89,2.52,12.39s-.83,8.73-2.48,12.52c-1.65,3.79-3.97,7.08-6.96,9.87-2.99,2.79-6.51,4.96-10.55,6.49-4.05,1.54-8.46,2.31-13.25,2.31Zm0-14.01c2.28,0,4.4-.4,6.37-1.2,1.97-.8,3.67-1.95,5.13-3.46,1.45-1.51,2.59-3.3,3.42-5.38.83-2.08,1.24-4.43,1.24-7.05s-.41-4.97-1.24-7.05c-.83-2.08-1.97-3.87-3.42-5.38-1.45-1.51-3.16-2.66-5.13-3.46-1.97-.8-4.09-1.2-6.37-1.2s-4.4.4-6.37,1.2c-1.97.8-3.69,1.95-5.17,3.46-1.48,1.51-2.62,3.3-3.42,5.38-.8,2.08-1.2,4.43-1.2,7.05s.4,4.97,1.2,7.05c.8,2.08,1.94,3.88,3.42,5.38,1.48,1.51,3.2,2.66,5.17,3.46,1.97.8,4.09,1.2,6.37,1.2Z"/>
    <path class="cls-1" d="m551.76,836.5c-4.96,0-9.7-.61-14.23-1.84-4.53-1.22-8.19-2.78-10.98-4.66l5.55-12.56c2.68,1.71,5.77,3.12,9.27,4.23,3.5,1.11,6.99,1.67,10.47,1.67,2.39,0,4.29-.2,5.68-.6,1.4-.4,2.42-.97,3.08-1.71.65-.74.98-1.62.98-2.65,0-1.31-.63-2.35-1.88-3.12-1.25-.77-2.89-1.42-4.91-1.97-2.02-.54-4.22-1.05-6.58-1.54-2.36-.48-4.77-1.12-7.22-1.92-2.45-.8-4.67-1.85-6.67-3.16-2-1.31-3.6-3.02-4.83-5.13-1.23-2.11-1.84-4.76-1.84-7.95,0-3.53.97-6.75,2.91-9.66,1.94-2.91,4.87-5.24,8.8-7.01,3.93-1.77,8.83-2.65,14.7-2.65,3.93,0,7.79.44,11.58,1.32,3.79.88,7.14,2.21,10.04,3.97l-5.13,12.48c-2.85-1.59-5.67-2.76-8.46-3.5-2.79-.74-5.5-1.11-8.12-1.11-2.34,0-4.22.26-5.64.77-1.42.51-2.45,1.17-3.08,1.97-.63.8-.94,1.65-.94,2.56,0,1.37.63,2.44,1.88,3.2,1.25.77,2.88,1.4,4.87,1.88,1.99.48,4.2.98,6.62,1.5,2.42.51,4.83,1.15,7.22,1.92s4.6,1.79,6.62,3.08c2.02,1.28,3.66,2.96,4.91,5.04,1.25,2.08,1.88,4.69,1.88,7.82,0,3.48-.98,6.68-2.95,9.61-1.97,2.93-4.91,5.28-8.84,7.05-3.93,1.77-8.86,2.65-14.78,2.65Z"/>
    <path class="cls-1" d="m581.84,835.3v-59.82h27.26c5.47,0,10.2.88,14.19,2.65,3.99,1.77,7.05,4.32,9.19,7.65s3.2,7.25,3.2,11.75-1.07,8.56-3.2,11.83c-2.14,3.28-5.2,5.81-9.19,7.6-3.99,1.79-8.72,2.69-14.19,2.69h-17.94l7.6-7.43v23.07h-16.92Zm16.92-21.11l-7.6-7.95h16.92c3.53,0,6.18-.75,7.95-2.26,1.77-1.51,2.65-3.66,2.65-6.45s-.88-4.8-2.65-6.37c-1.77-1.57-4.42-2.35-7.95-2.35h-16.92l7.6-7.78v33.16Z"/>
    <path class="cls-1" d="m640.55,835.3v-59.82h16.92v59.82h-16.92Z"/>
    <path class="cls-1" d="m677.89,835.3v-46.4h-18.37v-13.42h53.58v13.42h-18.29v46.4h-16.92Z"/>
    <path class="cls-1" d="m707.97,835.3l26.4-59.82h16.66l26.49,59.82h-17.6l-20.68-51.53h6.67l-20.68,51.53h-17.26Zm14.44-11.71l4.36-12.39h29.22l4.36,12.39h-37.94Z"/>
    <path class="cls-1" d="m778.04,835.3v-59.82h16.92v46.4h28.46v13.42h-45.38Z"/>
  </g>
</svg>