<?xml version="1.0" encoding="UTF-8"?>
<svg id="Layer_1" data-name="Layer 1" xmlns="http://www.w3.org/2000/svg" viewBox="0 0 3190.86 1220">
  <defs>
    <style>
      .cls-1 {
        fill: none;
        stroke: #fff;
        stroke-miterlimit: 10.43;
        stroke-width: 5px;
      }

      .cls-2 {
        fill: #fff;
        stroke-width: 0px;
      }
    </style>
  </defs>
  <g>
    <path class="cls-2" d="m603.81,0h.09l.04.58c.09,108.79.01,217.59.04,326.38-.16,7.4.41,14.82-.4,22.2-10.54,5.37-20.55,11.74-30.88,17.51-69.09,39.89-138.19,79.79-207.29,119.68-21.04,12.02-41.88,24.43-63.05,36.22l-1.11.5c.12-115.37.03-230.74.04-346.12-.36-3.1,3.4-3.9,5.37-5.36C405.74,114.44,504.82,57.28,603.81,0Z"/>
    <path class="cls-2" d="m904.67,524.04c.69-.21,1.4-.4,2.13-.59,87.53,51.44,175.25,102.57,262.85,153.89,11.92,7.16,24.19,13.78,35.89,21.26.83,2.99.25,6.26.4,9.37.11,112.9.08,225.81.15,338.71l-.33.14c-70.23-40.94-140.48-81.84-210.72-122.76-30.1-17.67-60.44-34.95-90.4-52.86.44-51.39.07-102.8.19-154.2-.11-64.32.22-128.65-.16-192.96Z"/>
    <path class="cls-2" d="m398.39,525.48c30.58.04,61.17-.03,91.75.04,11.3.19,22.69.37,33.84,2.36,14.2,2.59,27.28,10.92,35.28,22.98,8.98,12.58,11.13,29.38,6.61,44.05-4.25,13.79-14.64,25.37-27.76,31.34,15.17,4.23,29.16,14.34,35.71,28.97,10.94,24.29,2.67,55.12-17.72,71.87-9.8,8.05-22.47,11.77-34.96,12.69-10.32.68-20.67.84-31.02,1.01-30.59.37-61.19.18-91.78.16.09-71.82,0-143.65.05-215.47Zm43.65,35.78c-.22,16.57-.04,33.14-.09,49.71,18.05-.08,36.11.23,54.17-.35,6.97-.19,14.27-1.33,20.11-5.42,12.91-8.57,12.89-30.79-.17-39.2-7.43-4.68-16.56-4.27-24.99-4.52-16.34-.3-32.69-.11-49.03-.22Zm-.09,85.52c.08,19.28-.18,38.57.13,57.84,17.24-.15,34.48.09,51.72-.14,6.79-.26,13.7-.1,20.35-1.69,8.62-2.04,16.27-8.63,18.56-17.33,2.01-7.83,1.67-16.62-2.33-23.78-3.92-7.07-11.45-11.56-19.27-12.91-8.93-1.54-18.01-1.73-27.04-1.94-14.04-.11-28.08-.03-42.12-.05Z"/>
    <path class="cls-2" d="m628.51,525.49c14.49-.04,28.97.07,43.46-.06.27,31.82.03,63.65.12,95.48,29.28-31.77,58.52-63.57,87.73-95.39,19.44-.08,38.87,0,58.31-.04-26.86,28.09-54,55.93-81.03,83.87,28.39,43.93,56.93,87.75,85.37,131.64-18.74,0-37.48.03-56.22-.02-19.44-33.35-39-66.64-58.45-99.99-.46-1.44-1.84-.25-2.34.46-11.08,11.51-22.27,22.91-33.38,34.4v65.15c-14.54-.05-29.09.13-43.63-.09.14-71.8.02-143.6.06-215.41Z"/>
    <path class="cls-2" d="m211.99,921.9c30.11-17.06,60.01-34.51,90.26-51.31,41.67,24.48,83.7,48.38,125.52,72.64,42.08,24.3,84.17,48.6,126.25,72.89,16.8,9.49,33.25,19.62,50.28,28.69l-1.15.82c-21.89,13.04-44.11,25.53-66.13,38.35-71.21,41.12-142.41,82.23-213.62,123.34-6.73,4.15-13.98,7.52-20.36,12.19l-.2.49h-1.39c-.92-.92-1.81-1.86-2.93-2.48-99.53-58.07-199-116.23-298.52-174.31,10.52-6.75,21.66-12.5,32.43-18.84,59.85-34.16,119.71-68.3,179.56-102.47Z"/>
  </g>
  <g>
    <path class="cls-1" d="m603.94.58c100.43,58.14,201.03,115.97,301.43,174.15-.01,115.66-.1,231.31.05,346.96-.39.6-.77,1.21-1.13,1.82-4.43-3.34-9.46-5.72-14.18-8.58-84.53-48.81-169.07-97.61-253.6-146.42-10.93-6.52-22.26-12.42-32.93-19.35.81-7.38.24-14.8.4-22.2-.03-108.79.05-217.59-.04-326.38Z"/>
    <path class="cls-1" d="m266.71,542.76c11.54-6.5,22.81-13.53,34.54-19.69l1.11-.5c-.11,116.01.11,232.01-.11,348.02-30.25,16.8-60.15,34.25-90.26,51.31-59.85,34.17-119.71,68.31-179.56,102.47-10.77,6.34-21.91,12.09-32.43,18.84.12-115.47.04-230.94.03-346.41,88.83-51.46,177.8-102.68,266.68-154.04Z"/>
    <path class="cls-1" d="m642.5,1022.5c87.39-50.41,174.72-100.94,262.14-151.3,29.96,17.91,60.3,35.19,90.4,52.86,70.24,40.92,140.49,81.82,210.72,122.76-32.11,18.1-64.04,36.55-96.09,54.78-67.94,38.84-135.96,77.57-203.87,116.48-100.88-57.48-201.67-115.13-302.65-172.45l1.15-.82c12.5-7.81,25.5-14.81,38.2-22.31Z"/>
  </g>
  <g>
    <polygon class="cls-2" points="437.17 797.96 414.19 797.96 414.19 775.48 397.27 775.48 397.27 835.3 414.19 835.3 414.19 811.97 437.17 811.97 437.17 835.3 454.09 835.3 454.09 775.48 437.17 775.48 437.17 797.96"/>
    <path class="cls-2" d="m515.7,783.09c-2.96-2.79-6.47-4.96-10.51-6.49-4.05-1.54-8.46-2.31-13.25-2.31s-9.2.77-13.25,2.31c-4.05,1.54-7.55,3.72-10.51,6.54-2.96,2.82-5.28,6.11-6.96,9.87-1.68,3.76-2.52,7.86-2.52,12.3s.84,8.65,2.52,12.43c1.68,3.79,4,7.09,6.96,9.91,2.96,2.82,6.48,5,10.55,6.54,4.07,1.54,8.47,2.31,13.2,2.31s9.2-.77,13.25-2.31c4.04-1.54,7.56-3.7,10.55-6.49,2.99-2.79,5.31-6.08,6.96-9.87,1.65-3.79,2.48-7.96,2.48-12.52s-.84-8.63-2.52-12.39c-1.68-3.76-4-7.04-6.96-9.83Zm-8.84,29.35c-.83,2.08-1.97,3.88-3.42,5.38-1.45,1.51-3.16,2.66-5.13,3.46-1.97.8-4.09,1.2-6.37,1.2s-4.4-.4-6.37-1.2c-1.97-.8-3.69-1.95-5.17-3.46-1.48-1.51-2.62-3.3-3.42-5.38-.8-2.08-1.2-4.43-1.2-7.05s.4-4.97,1.2-7.05c.8-2.08,1.94-3.87,3.42-5.38,1.48-1.51,3.2-2.66,5.17-3.46,1.97-.8,4.09-1.2,6.37-1.2s4.4.4,6.37,1.2c1.97.8,3.67,1.95,5.13,3.46,1.45,1.51,2.59,3.3,3.42,5.38.83,2.08,1.24,4.43,1.24,7.05s-.41,4.97-1.24,7.05Z"/>
    <path class="cls-2" d="m570.61,804.32c-2.02-1.28-4.23-2.31-6.62-3.08s-4.8-1.41-7.22-1.92c-2.42-.51-4.63-1.01-6.62-1.5-1.99-.48-3.62-1.11-4.87-1.88-1.25-.77-1.88-1.84-1.88-3.2,0-.91.31-1.77.94-2.56.63-.8,1.65-1.45,3.08-1.97,1.42-.51,3.3-.77,5.64-.77,2.62,0,5.33.37,8.12,1.11,2.79.74,5.61,1.91,8.46,3.5l5.13-12.48c-2.91-1.77-6.25-3.09-10.04-3.97-3.79-.88-7.65-1.32-11.58-1.32-5.87,0-10.77.88-14.7,2.65-3.93,1.77-6.87,4.1-8.8,7.01-1.94,2.91-2.91,6.12-2.91,9.66,0,3.19.61,5.84,1.84,7.95,1.22,2.11,2.83,3.82,4.83,5.13,1.99,1.31,4.21,2.36,6.67,3.16,2.45.8,4.86,1.44,7.22,1.92,2.36.48,4.56,1,6.58,1.54,2.02.54,3.66,1.2,4.91,1.97,1.25.77,1.88,1.81,1.88,3.12,0,1.03-.33,1.91-.98,2.65-.66.74-1.68,1.31-3.08,1.71-1.4.4-3.29.6-5.68.6-3.48,0-6.96-.56-10.47-1.67-3.5-1.11-6.59-2.52-9.27-4.23l-5.55,12.56c2.79,1.88,6.45,3.43,10.98,4.66,4.53,1.22,9.27,1.84,14.23,1.84,5.92,0,10.85-.88,14.78-2.65,3.93-1.77,6.88-4.12,8.84-7.05,1.97-2.93,2.95-6.14,2.95-9.61,0-3.13-.63-5.74-1.88-7.82-1.25-2.08-2.89-3.76-4.91-5.04Z"/>
    <path class="cls-2" d="m622.35,778.13c-3.99-1.77-8.72-2.65-14.19-2.65h-27.26v59.82h16.92v-15.64h10.34c5.47,0,10.2-.9,14.19-2.69,3.99-1.79,7.05-4.33,9.19-7.6,2.14-3.28,3.2-7.22,3.2-11.83s-1.07-8.42-3.2-11.75-5.2-5.88-9.19-7.65Zm-7.26,25.85c-1.77,1.51-4.42,2.26-7.95,2.26h-9.31v-17.43h9.31c3.53,0,6.18.78,7.95,2.35,1.77,1.57,2.65,3.69,2.65,6.37s-.88,4.94-2.65,6.45Z"/>
    <rect class="cls-2" x="639.61" y="775.48" width="16.92" height="59.82"/>
    <polygon class="cls-2" points="712.15 775.48 658.58 775.48 658.58 788.9 676.95 788.9 676.95 835.3 693.87 835.3 693.87 788.9 712.15 788.9 712.15 775.48"/>
    <path class="cls-2" d="m733.43,775.48l-26.4,59.82h17.26l4.7-11.71h25.3l4.7,11.71h17.6l-26.49-59.82h-16.66Zm.53,35.72l7.68-19.13,7.68,19.13h-15.35Z"/>
    <polygon class="cls-2" points="794.02 821.88 794.02 775.48 777.1 775.48 777.1 835.3 822.47 835.3 822.47 821.88 794.02 821.88"/>
  </g>
  <g>
    <path class="cls-2" d="m1499.93,603.95c-1.04-.42-2.12-.81-3.2-1.19,7.75-4.06,13.87-9.35,18.33-15.89,5.18-7.59,7.78-16.38,7.78-26.38,0-15-6.3-27.21-18.88-36.65-12.59-9.44-31.75-14.16-57.48-14.16h-98.86v194.38h104.41c26.28,0,46.23-4.72,59.84-14.16,13.61-9.44,20.41-22.49,20.41-39.15,0-11.11-2.82-20.64-8.47-28.6-5.65-7.96-13.61-14.02-23.88-18.19Zm-60.4-54.56c9.25,0,16.2,1.53,20.83,4.58,4.62,3.05,6.94,7.82,6.94,14.3,0,6.11-2.32,10.74-6.94,13.88-4.63,3.15-11.57,4.72-20.83,4.72h-37.76v-37.49h37.76Zm29.99,110.1c-4.82,3.24-12.04,4.86-21.66,4.86h-46.1v-39.43h46.1c9.62,0,16.84,1.62,21.66,4.86,4.81,3.24,7.22,8.19,7.22,14.86s-2.41,11.62-7.22,14.86Z"/>
    <polygon class="cls-2" points="1736.66 509.68 1676.4 509.68 1601.15 590.43 1601.15 509.68 1547 509.68 1547 704.05 1601.15 704.05 1601.15 655.36 1621.56 633.49 1677.23 704.05 1741.1 704.05 1657.69 595.8 1736.66 509.68"/>
    <polygon class="cls-2" points="1938.8 582.71 1864.11 582.71 1864.11 509.68 1809.12 509.68 1809.12 704.05 1864.11 704.05 1864.11 628.25 1938.8 628.25 1938.8 704.05 1993.78 704.05 1993.78 509.68 1938.8 509.68 1938.8 582.71"/>
    <path class="cls-2" d="m2193.99,534.39c-9.63-9.07-21.01-16.11-34.15-21.1-13.15-5-27.49-7.5-43.04-7.5s-29.9,2.5-43.04,7.5c-13.15,5-24.53,12.08-34.15,21.24-9.63,9.16-17.17,19.85-22.63,32.07-5.46,12.22-8.19,25.55-8.19,39.99s2.73,28.09,8.19,40.4c5.46,12.31,13,23.05,22.63,32.21,9.62,9.16,21.06,16.24,34.29,21.24,13.23,5,27.53,7.5,42.9,7.5s29.89-2.5,43.04-7.5c13.14-5,24.57-12.03,34.29-21.1,9.72-9.07,17.26-19.76,22.63-32.07,5.37-12.31,8.05-25.87,8.05-40.68s-2.73-28.05-8.19-40.26c-5.46-12.22-13.01-22.86-22.63-31.93Zm-28.74,95.38c-2.69,6.76-6.39,12.59-11.11,17.49-4.72,4.91-10.27,8.66-16.66,11.25-6.39,2.59-13.29,3.89-20.69,3.89s-14.3-1.29-20.69-3.89c-6.39-2.59-11.99-6.34-16.8-11.25-4.82-4.9-8.52-10.73-11.11-17.49-2.59-6.76-3.89-14.39-3.89-22.91s1.29-16.15,3.89-22.91c2.59-6.76,6.29-12.59,11.11-17.49,4.81-4.9,10.41-8.65,16.8-11.25,6.39-2.59,13.28-3.89,20.69-3.89s14.3,1.3,20.69,3.89c6.39,2.59,11.94,6.34,16.66,11.25,4.72,4.91,8.42,10.74,11.11,17.49,2.68,6.76,4.03,14.4,4.03,22.91s-1.34,16.15-4.03,22.91Z"/>
    <path class="cls-2" d="m2372.4,603.39c-6.57-4.17-13.75-7.5-21.52-10-7.78-2.5-15.6-4.58-23.46-6.25-7.87-1.67-15.04-3.28-21.52-4.86-6.48-1.57-11.76-3.61-15.83-6.11-4.07-2.5-6.11-5.97-6.11-10.41,0-2.96,1.02-5.74,3.05-8.33,2.03-2.59,5.37-4.72,10-6.39,4.62-1.67,10.73-2.5,18.33-2.5,8.51,0,17.31,1.21,26.38,3.61,9.07,2.41,18.23,6.2,27.49,11.38l16.66-40.54c-9.44-5.74-20.32-10.04-32.63-12.91-12.31-2.87-24.85-4.3-37.63-4.3-19.07,0-34.99,2.87-47.76,8.61-12.77,5.74-22.31,13.33-28.6,22.77-6.3,9.44-9.44,19.9-9.44,31.38,0,10.37,1.99,18.98,5.97,25.82,3.98,6.85,9.21,12.4,15.69,16.66,6.48,4.26,13.7,7.68,21.66,10.27,7.96,2.59,15.78,4.68,23.46,6.25,7.68,1.57,14.81,3.24,21.38,5,6.57,1.76,11.89,3.89,15.97,6.39,4.07,2.5,6.11,5.88,6.11,10.14,0,3.33-1.07,6.2-3.19,8.61-2.13,2.41-5.46,4.26-10,5.55-4.54,1.3-10.69,1.94-18.47,1.94-11.29,0-22.63-1.81-34.02-5.42-11.38-3.61-21.43-8.19-30.13-13.75l-18.05,40.82c9.07,6.11,20.96,11.15,35.68,15.13,14.72,3.98,30.13,5.97,46.23,5.97,19.25,0,35.27-2.87,48.04-8.61s22.35-13.37,28.74-22.91c6.39-9.53,9.58-19.95,9.58-31.24,0-10.18-2.04-18.65-6.11-25.41-4.07-6.76-9.4-12.22-15.97-16.38Z"/>
    <path class="cls-2" d="m2540.54,518.28c-12.96-5.74-28.32-8.61-46.1-8.61h-88.58v194.38h54.98v-50.82h33.6c17.77,0,33.14-2.92,46.1-8.75,12.96-5.83,22.91-14.07,29.85-24.71,6.94-10.64,10.41-23.46,10.41-38.46s-3.47-27.35-10.41-38.18c-6.94-10.83-16.9-19.11-29.85-24.85Zm-23.6,84c-5.74,4.91-14.35,7.36-25.82,7.36h-30.27v-56.65h30.27c11.48,0,20.08,2.55,25.82,7.64,5.74,5.09,8.61,11.99,8.61,20.69s-2.87,16.06-8.61,20.96Z"/>
    <rect class="cls-2" x="2596.63" y="509.68" width="54.98" height="194.38"/>
    <polygon class="cls-2" points="2832.38 509.68 2658.27 509.68 2658.27 553.27 2717.97 553.27 2717.97 704.05 2772.95 704.05 2772.95 553.27 2832.38 553.27 2832.38 509.68"/>
    <path class="cls-2" d="m2901.52,509.68l-85.8,194.38h56.09l15.27-38.04h82.2l15.27,38.04h57.2l-86.08-194.38h-54.15Zm1.71,116.07l24.94-62.15,24.94,62.15h-49.89Z"/>
    <polygon class="cls-2" points="3098.39 660.46 3098.39 509.68 3043.41 509.68 3043.41 704.05 3190.86 704.05 3190.86 660.46 3098.39 660.46"/>
  </g>
</svg>